<svg width="1355" height="325" viewBox="0 0 1355 325" fill="none" xmlns="http://www.w3.org/2000/svg">
<path d="M693.332 1.19975C683.466 4.26642 676.399 10.6664 671.866 20.6664C668.799 27.3331 668.532 41.7331 671.332 48.5331C674.399 55.9997 681.866 63.3331 689.599 66.6664C699.466 70.9331 714.266 69.9998 723.199 64.7998C734.932 57.8664 740.932 45.4664 739.599 30.6664C738.399 17.0664 730.132 6.53308 717.199 1.99975C711.332 -0.133585 698.932 -0.533585 693.332 1.19975Z" fill="white"/>
<path d="M134 11.1997C128.266 13.7331 121.6 21.7331 120.533 27.5997C119.466 33.4664 120.933 182.8 122.133 196.266L123.066 205.066L126.8 203.733C132.266 201.866 142 192.8 144.666 187.2C146.8 182.8 146.933 176.266 146.533 108.8L146 35.3331L210.4 34.9331C245.733 34.7997 274.666 34.1331 274.666 33.4664C274.666 29.9997 270.133 20.2664 266.933 16.9331C259.6 9.19973 261.2 9.33306 197.066 9.33306C151.333 9.4664 137.066 9.8664 134 11.1997Z" fill="white"/>
<path d="M257.066 53.3331C249.332 55.5998 245.199 60.3998 232.532 81.7331C225.466 93.5998 204.132 129.2 185.199 160.933C147.466 224.133 144.799 228.8 142.532 237.866C140.532 246 142.666 254 148.932 261.333C155.866 269.466 246.399 323.066 255.866 324.666C266.399 326.4 276.799 321.066 283.599 310.266C296.132 290.4 381.866 146.933 383.466 143.333C387.199 134.266 384.399 121.733 377.199 115.066C373.866 112 292.932 64.3998 277.466 56.3998C269.066 51.9998 263.999 51.1998 257.066 53.3331ZM297.199 97.5998C351.866 129.333 355.066 131.333 356.532 133.6C357.599 135.333 357.332 136.933 355.599 140.266C354.399 142.666 332.799 178.8 307.599 220.666C271.332 281.066 261.199 296.8 258.932 297.066C255.466 297.6 256.799 298.266 206.266 268.266C177.732 251.2 169.066 245.466 168.532 243.066C167.866 240.8 168.932 237.866 171.999 232.933C175.999 226.666 248.532 106.266 259.599 87.5998C262.132 83.4664 264.799 79.9998 265.599 79.9998C266.399 79.9998 280.666 87.8664 297.199 97.5998Z" fill="white"/>
<path d="M75.3325 65.9999C69.5992 68.9332 16.3992 108.4 9.73255 114.8C0.132551 124 -2.26745 137.2 3.46588 148.4C4.66588 150.667 23.0659 178 44.3992 209.2C115.199 313.067 110.666 306.8 119.333 310.8C128.266 314.933 139.866 313.333 147.199 306.933C150.533 304 157.333 293.333 157.333 291.067C157.333 290 154.533 288 151.066 286.533C147.466 285.067 143.599 282.933 142.399 281.733C140.399 279.867 139.733 280.133 135.466 283.333C132.799 285.333 129.866 286.667 128.799 286.267C127.333 285.733 98.3992 243.867 35.4659 151.067C24.7992 135.2 24.6659 133.467 34.2659 126.667C64.9325 104.8 96.9325 79.8666 98.3992 76.7999C100.933 71.0666 100.399 67.3332 96.6659 65.5999C91.8659 63.3332 80.1325 63.7332 75.3325 65.9999Z" fill="white"/>
<path d="M532 92.9333C524.266 93.8666 509.2 98.6666 500 103.333C475.333 115.733 458.4 135.6 449.2 162.8C441.466 185.733 442.4 215.333 451.6 238.267C463.866 268.933 492.8 292.8 526.666 300.133C542.8 303.733 567.333 303.067 582.4 298.667C602.533 292.933 620.666 281.067 631.6 266.267C638 257.6 643.2 247.467 642.4 245.067C641.866 243.733 598.533 229.467 594.533 229.333C593.333 229.333 589.866 232.267 586.8 235.867C575.066 249.867 552.666 255.733 535.866 249.467C515.866 241.867 504.8 225.467 503.066 200.667C500.933 170.133 518.933 146.4 545.866 144.4C565.2 142.933 579.733 151.067 591.333 169.867C592.533 171.867 595.333 171.2 617.733 163.733C631.466 159.067 642.666 154.667 642.666 153.867C642.666 152.933 640.266 147.6 637.466 141.733C619.466 106.133 579.466 87.5999 532 92.9333Z" fill="white"/>
<path d="M878.667 93.4667C864.533 95.8667 846.533 106.667 838.667 117.6L834.667 123.067V108.133V93.3333L805.733 93.6L776.667 94L776.267 194.933L776 296H805.2H834.533L834.933 234.933C835.333 174.533 835.333 174 838.4 167.2C840.133 163.467 844 158 847.067 154.933C865.467 136.933 896.933 142.133 908.267 165.067C911.333 171.333 911.333 171.733 911.733 233.6L912.133 296H940.667H969.2L969.6 235.6C970 176.267 970.133 175.2 973.067 167.733C984.933 138.267 1027.73 135.467 1042.4 163.2L1046 170L1046.4 232.933L1046.8 296H1074.67H1102.67V225.467C1102.67 148.667 1102.13 141.333 1095.33 128C1084.27 106.267 1061.6 93.7333 1030.67 92.4C1000 91.0667 975.733 100.933 964 119.6L960.4 125.2L955.333 118.533C941.867 100.8 921.467 91.7333 896.133 92.1333C890.533 92.2667 882.667 92.8 878.667 93.4667Z" fill="white"/>
<path d="M1221.33 93.3329C1181.73 99.7329 1147.73 130.8 1137.07 170.533C1133.2 184.666 1133.2 209.866 1137.2 224.4C1141.2 239.466 1150.67 256.933 1160.93 268C1199.6 309.733 1269.33 314.266 1315.6 278.133C1332.4 264.933 1346 244.533 1351.33 224.666C1356.27 205.466 1355.2 177.733 1348.53 160.266C1336.93 129.466 1308 104.133 1274.67 95.3329C1264.53 92.7996 1232.53 91.4663 1221.33 93.3329ZM1256.4 144.666C1278.8 150.533 1294.67 172.266 1294.67 197.2C1294.67 220 1283.33 238.8 1264.27 247.733C1257.6 250.933 1254.93 251.333 1243.33 251.333C1230.93 251.333 1229.33 251.066 1221.07 246.933C1206 239.6 1196.93 226.133 1194.27 207.2C1188.27 165.866 1219.07 134.933 1256.4 144.666Z" fill="white"/>
<path d="M676.933 94.2667C676.4 94.6667 676 140.267 676 195.6V296H704.667H733.333V194.667V93.3333H705.6C690.267 93.3333 677.333 93.7333 676.933 94.2667Z" fill="white"/>
</svg>
