<svg width="24" height="24" viewBox="0 0 24 24" fill="none" xmlns="http://www.w3.org/2000/svg">
<g clip-path="url(#clip0_576_741)">
<path d="M20.0385 16.857C22.59 14.58 24 12 24 12C24 12 19.5 3.75 12 3.75C10.5593 3.75377 9.13472 4.05399 7.815 4.632L8.97 5.7885C9.94159 5.43637 10.9666 5.25421 12 5.25C15.18 5.25 17.8185 7.002 19.752 8.9355C20.6836 9.87012 21.5178 10.8969 22.242 12C22.156 12.13 22.0585 12.274 21.9495 12.432C21.447 13.152 20.7045 14.112 19.752 15.0645C19.505 15.3125 19.2465 15.5555 18.9765 15.7935L20.0385 16.857Z" fill="white"/>
<path d="M16.9455 13.764C17.2802 12.8278 17.3422 11.8158 17.1243 10.8457C16.9063 9.87558 16.4173 8.98733 15.7143 8.28427C15.0112 7.58121 14.123 7.09225 13.1529 6.87429C12.1828 6.65632 11.1707 6.71831 10.2345 7.05304L11.469 8.28754C12.0455 8.20503 12.6332 8.25791 13.1857 8.44199C13.7382 8.62607 14.2402 8.93628 14.652 9.34806C15.0638 9.75984 15.374 10.2619 15.5581 10.8143C15.7421 11.3668 15.795 11.9546 15.7125 12.531L16.9455 13.764ZM12.531 15.7125L13.764 16.9455C12.8278 17.2803 11.8157 17.3423 10.8456 17.1243C9.87555 16.9063 8.9873 16.4174 8.28424 15.7143C7.58118 15.0113 7.09222 14.123 6.87426 13.1529C6.65629 12.1828 6.71828 11.1708 7.05301 10.2345L8.28751 11.469C8.205 12.0455 8.25788 12.6333 8.44196 13.1857C8.62603 13.7382 8.93625 14.2403 9.34803 14.652C9.75981 15.0638 10.2618 15.374 10.8143 15.5581C11.3668 15.7422 11.9545 15.7951 12.531 15.7125Z" fill="white"/>
<path d="M5.025 8.20524C4.755 8.44524 4.496 8.68874 4.248 8.93574C3.31645 9.87036 2.48217 10.8971 1.758 12.0002L2.0505 12.4322C2.553 13.1522 3.2955 14.1122 4.248 15.0647C6.1815 16.9982 8.8215 18.7502 12 18.7502C13.074 18.7502 14.085 18.5507 15.03 18.2102L16.185 19.3682C14.8653 19.9462 13.4407 20.2465 12 20.2502C4.5 20.2502 0 12.0002 0 12.0002C0 12.0002 1.4085 9.41874 3.9615 7.14324L5.0235 8.20674L5.025 8.20524ZM20.469 21.5312L2.469 3.53124L3.531 2.46924L21.531 20.4692L20.469 21.5312Z" fill="white"/>
</g>
<defs>
<clipPath id="clip0_576_741">
<rect width="24" height="24" fill="white"/>
</clipPath>
</defs>
</svg>
