<svg width="35" height="35" viewBox="0 0 35 35" fill="none" xmlns="http://www.w3.org/2000/svg">
<g clip-path="url(#clip0_507_742)">
<path d="M24.0625 13.125C24.0625 14.8655 23.3711 16.5347 22.1404 17.7654C20.9097 18.9961 19.2405 19.6875 17.5 19.6875C15.7595 19.6875 14.0903 18.9961 12.8596 17.7654C11.6289 16.5347 10.9375 14.8655 10.9375 13.125C10.9375 11.3845 11.6289 9.71532 12.8596 8.48461C14.0903 7.2539 15.7595 6.5625 17.5 6.5625C19.2405 6.5625 20.9097 7.2539 22.1404 8.48461C23.3711 9.71532 24.0625 11.3845 24.0625 13.125Z" fill="white"/>
<path d="M4.375 0C3.21468 0 2.10188 0.460936 1.28141 1.28141C0.460936 2.10188 0 3.21468 0 4.375L0 30.625C0 31.7853 0.460936 32.8981 1.28141 33.7186C2.10188 34.5391 3.21468 35 4.375 35H30.625C31.7853 35 32.8981 34.5391 33.7186 33.7186C34.5391 32.8981 35 31.7853 35 30.625V4.375C35 3.21468 34.5391 2.10188 33.7186 1.28141C32.8981 0.460936 31.7853 0 30.625 0L4.375 0ZM30.625 2.1875C31.2052 2.1875 31.7616 2.41797 32.1718 2.8282C32.582 3.23844 32.8125 3.79484 32.8125 4.375V30.625C32.8125 31.2052 32.582 31.7616 32.1718 32.1718C31.7616 32.582 31.2052 32.8125 30.625 32.8125V30.625C30.625 28.4375 28.4375 21.875 17.5 21.875C6.5625 21.875 4.375 28.4375 4.375 30.625V32.8125C3.79484 32.8125 3.23844 32.582 2.8282 32.1718C2.41797 31.7616 2.1875 31.2052 2.1875 30.625V4.375C2.1875 3.79484 2.41797 3.23844 2.8282 2.8282C3.23844 2.41797 3.79484 2.1875 4.375 2.1875H30.625Z" fill="white"/>
</g>
<defs>
<clipPath id="clip0_507_742">
<rect width="35" height="35" fill="white"/>
</clipPath>
</defs>
</svg>
