<svg width="24" height="24" viewBox="0 0 24 24" fill="none" xmlns="http://www.w3.org/2000/svg">
<path d="M8.25 8.75C8.29972 8.75 8.34791 8.76482 8.38867 8.79199L8.42676 8.82324C8.47364 8.87013 8.5 8.9337 8.5 9V18C8.5 18.0663 8.47364 18.1299 8.42676 18.1768C8.37987 18.2236 8.31631 18.25 8.25 18.25C8.20028 18.25 8.15209 18.2352 8.11133 18.208L8.07324 18.1768C8.02636 18.1299 8 18.0663 8 18V9C8 8.95028 8.01482 8.90209 8.04199 8.86133L8.07324 8.82324C8.12013 8.77636 8.1837 8.75 8.25 8.75ZM12 8.75C12.0497 8.75 12.0979 8.76482 12.1387 8.79199L12.1768 8.82324C12.2236 8.87013 12.25 8.9337 12.25 9V18C12.25 18.0663 12.2236 18.1299 12.1768 18.1768C12.1299 18.2236 12.0663 18.25 12 18.25C11.9503 18.25 11.9021 18.2352 11.8613 18.208L11.8232 18.1768C11.7764 18.1299 11.75 18.0663 11.75 18V9C11.75 8.95028 11.7648 8.90209 11.792 8.86133L11.8232 8.82324C11.8701 8.77636 11.9337 8.75 12 8.75ZM15.75 8.75C15.7997 8.75 15.8479 8.76482 15.8887 8.79199L15.9268 8.82324C15.9736 8.87013 16 8.93369 16 9V18C16 18.0663 15.9736 18.1299 15.9268 18.1768C15.8799 18.2236 15.8163 18.25 15.75 18.25C15.6837 18.25 15.6201 18.2236 15.5732 18.1768C15.5264 18.1299 15.5 18.0663 15.5 18V9C15.5 8.95028 15.5148 8.90209 15.542 8.86133L15.5732 8.82324C15.6201 8.77636 15.6837 8.75 15.75 8.75Z" fill="#71717A" stroke="white"/>
<path d="M10.5 0.5H13.5C13.7321 0.5 13.9558 0.580727 14.1338 0.726562L14.207 0.792969C14.3946 0.980505 14.5 1.23478 14.5 1.5V2H20.25C20.4821 2 20.7058 2.08073 20.8838 2.22656L20.957 2.29297C21.1446 2.4805 21.25 2.73478 21.25 3V4.5C21.25 4.73209 21.1693 4.95583 21.0234 5.13379L20.957 5.20703C20.7695 5.39457 20.5152 5.5 20.25 5.5H19V19.5C19 20.0801 18.798 20.6391 18.4336 21.084L18.2676 21.2676C17.7987 21.7364 17.163 22 16.5 22H7.5C6.91989 22 6.36086 21.798 5.91602 21.4336L5.73242 21.2676C5.26358 20.7987 5 20.163 5 19.5V5.5H3.75C3.51791 5.5 3.29417 5.41927 3.11621 5.27344L3.04297 5.20703C2.85543 5.01949 2.75 4.76522 2.75 4.5V3C2.75 2.76791 2.83073 2.54417 2.97656 2.36621L3.04297 2.29297C3.2305 2.10543 3.48478 2 3.75 2H9.5V1.5C9.5 1.23478 9.60543 0.980505 9.79297 0.792969C9.9805 0.605432 10.2348 0.5 10.5 0.5ZM3.25 5H20.75V2.5H3.25V5ZM18.5 5.7793L18.2236 5.6416L18.0469 5.55273L17.9414 5.5H6.05859L5.95312 5.55273L5.77637 5.6416L5.5 5.7793V19.5C5.5 19.9642 5.66145 20.4117 5.95312 20.7676L6.08594 20.9141C6.46101 21.2891 6.96957 21.5 7.5 21.5H16.5C16.9642 21.5 17.4117 21.3385 17.7676 21.0469L17.9141 20.9141C18.2891 20.539 18.5 20.0304 18.5 19.5V5.7793Z" fill="#71717A" stroke="white"/>
</svg>
